<svg id="Layer_1" data-name="Layer 1" xmlns="http://www.w3.org/2000/svg" viewBox="0 0 504 576"><defs><style>.cls-1{fill:#231f20;}.cls-2{fill:none;stroke:#111820;stroke-miterlimit:10;stroke-width:25px;}.cls-3{fill:#fff;}.cls-4,.cls-5{fill:#111820;}.cls-5{font-size:12px;font-family:MyriadPro-Regular, Myriad Pro;}.cls-6{fill:#fefdfd;}</style></defs><title>Temoc_All</title><path class="cls-1" d="M169.27,420.18l-.61.42c-.4.26-.95.71-1.66,1.23s-1.55,1.2-2.48,2-2,1.72-3.07,2.72c-.57.49-1.1,1.06-1.67,1.63s-1.2,1.11-1.76,1.76c-1.16,1.26-2.4,2.56-3.57,4-.58.73-1.24,1.4-1.8,2.17l-1.75,2.31c-.62.75-1.15,1.58-1.7,2.39l-1.67,2.45c-1,1.68-2,3.39-3.05,5.05s-1.79,3.43-2.67,5.08-1.52,3.34-2.25,4.9c-.4.77-.64,1.57-.95,2.32l-.88,2.18c-.55,1.41-1.13,2.68-1.49,3.86s-.76,2.18-1.06,3c-.61,1.68-1,2.64-1,2.64s.05-1,.23-2.81c.09-.89.19-2,.36-3.23a31,31,0,0,1,.77-4.15c.36-1.5.64-3.18,1.22-4.86s1.15-3.48,1.81-5.31,1.62-3.62,2.49-5.48,2-3.61,3.11-5.39l1.79-2.57a26.81,26.81,0,0,1,1.87-2.48,57.6,57.6,0,0,1,8.16-8.31,48.12,48.12,0,0,1,4-3c.66-.42,1.27-.84,1.88-1.21s1.21-.67,1.76-1c1.09-.64,2.12-1,2.93-1.43A21.51,21.51,0,0,1,169.27,420.18Z"/><path class="cls-2" d="M415,357.24c-13.76-25.19-42.84-26.48-42.84-26.48S346,320.6,322.64,313.09c74.51-56.37,74-127.92,53.07-177,0,0-18.56,17.78-38.06,27.38,0,0,40.37-70.64-17.67-117.85,0,0-10.33,25.35-28.78,36.2-21.31,12.53-34.28,19.07-56.54,43.15,0,0,5-24.39,8.86-36.68,0,0-106.29,26.59-73.93,157.63,0,0-2.2,45.33,27.6,69.66-11.76,4.16-28.12,8.91-37.72,14L146,332s-31.31,6.84-39.59,31.38c-6.74,20,2.78,38.63,2.78,38.63S69.75,438.46,92,509c0,0,1.35,22.4,9.53,26.28s25,.8,25,.8,38.19-3.78,64.77-18c0,0,94.84,25.57,136.64.38l20.45-3s14.09-2.85,20.56-21.69l12.2-13.91s33.12-33.84,25.86-78C408.42,400.5,426.25,377.79,415,357.24Z"/><path class="cls-3" d="M251.06,300c-24.15,2.39-66.33,14.51-93.92,29l-12.49,2.44s-31.79,6.22-41.79,37c-6.5,20,3,34,3,34s-41.62,37.89-18.12,106c0,0,4.28,22.51,14.91,27.3,8.26,3.72,27.18,2.77,27.18,2.77s32-3,62.22-20c0,0,99.49,25.5,132.64,1.38l22.45-2s17.82-3.3,24.56-23.69l6.2-7.91s38.89-36.47,32.86-83c-1.59,1.64,22.29-20.33,6.88-50.83-10.63-21-45.77-27.32-45.77-27.32S325.16,292.69,251.06,300Z"/><path class="cls-3" d="M314.12,414.47S349.5,404,379.71,423.4c25,16,22.13,32,22.13,32S418.05,433,412.5,403.64c0,0,16.7-16.12,9.28-42.42-8.75-31-49.16-35.72-49.16-35.72s-39.94-27.34-97.53-27.34c-65.49,0-113.6,28.8-113.6,28.8s-42.89,3.24-56.19,33.11c-8.86,19.89-6.1,28.73-2.71,41.64l-16.73,31s25.74-14.27,47-7.22c25,8.3,25.7,26.33,25.7,26.33s47.1-17.32,100.54-.31l47.23-16.7Z"/><path class="cls-4" d="M160.34,370l-.18,1c-.14.61-.23,1.59-.47,2.72l-.61,4.18c-.26,1.58-.39,3.4-.65,5.31l-.3,3c0,.52-.12,1-.18,1.56s-.07,1.08-.11,1.62c-.07,1.1-.19,2.21-.29,3.34s-.12,2.31-.18,3.49c-.23,2.34-.12,4.81-.31,7.26l-.05,7.49.09,3.77c.07,1.25-.06,2.51.07,3.75.19,2.48.19,5,.32,7.35s.33,4.72.41,7c0,1.12.2,2.19.26,3.25s.16,2.08.2,3.07c.11,2,.12,3.84.29,5.46s.18,3.08.23,4.28,0,2.18,0,2.83,0,1,0,1l-.66.24L157,449.44l-1.35-4c-.25-.78-.57-1.59-.8-2.48l-.71-2.8c-.47-2-1.07-4.05-1.55-6.31l-1.29-7.14c-.38-2.49-.6-5.08-.91-7.71-.19-1.31-.16-2.65-.24-4l-.17-4c0-1.34.07-2.69.11-4s0-2.67.18-4l.39-3.91c.07-.64.11-1.29.21-1.92l.3-1.88.6-3.66.78-3.47c.13-.56.24-1.12.38-1.66l.45-1.59c.31-1,.57-2.06.88-3,.65-1.91,1.24-3.66,1.91-5.16s1.25-2.8,1.74-3.87,1-1.87,1.3-2.41.5-.83.5-.83Z"/><path class="cls-4" d="M362.53,378.81s-1.41.21-3.78.78a69.62,69.62,0,0,0-9.43,3,63.67,63.67,0,0,0-5.88,2.71,66.73,66.73,0,0,0-6.12,3.67,61.68,61.68,0,0,0-5.94,4.67c-1,.81-1.86,1.79-2.82,2.66s-1.8,1.89-2.65,2.88a67.35,67.35,0,0,0-4.77,6.21c-.73,1.08-1.46,2.14-2.11,3.25s-1.34,2.17-1.92,3.28c-1.25,2.17-2.29,4.38-3.32,6.47s-1.9,4.13-2.63,6.05L310,427.22l-.94,2.52c-.31.79-.58,1.53-.87,2.22l-.68,1.91c-.39,1.16-.77,2.06-1,2.69l-.38,1,0-1c0-.66,0-1.64,0-2.88l.06-2.06c0-.75.14-1.55.22-2.42l.29-2.75c.14-1,.34-2,.52-3,.33-2.13,1-4.37,1.59-6.77a67.93,67.93,0,0,1,2.68-7.35,39.78,39.78,0,0,1,1.79-3.76c.33-.62.63-1.27,1-1.89l1.12-1.84a55,55,0,0,1,5.19-7.1c1-1.11,2-2.17,3.05-3.22s2.15-2,3.31-2.91l1.71-1.35,1.78-1.22c1.16-.83,2.41-1.51,3.6-2.21a49.14,49.14,0,0,1,7.28-3.21,45.82,45.82,0,0,1,6.85-1.77,42.15,42.15,0,0,1,5.89-.63,36.31,36.31,0,0,1,4.54.1,26.15,26.15,0,0,1,2.88.38C362.18,378.71,362.53,378.81,362.53,378.81Z"/><path class="cls-4" d="M331.16,490.54l.3-.32a9.7,9.7,0,0,0,.77-.88c.31-.39.68-.85,1.09-1.39l1.39-1.79a38,38,0,0,1,3.91-4.26,25.87,25.87,0,0,1,2.63-2.15,23.21,23.21,0,0,1,3.12-1.89,18.39,18.39,0,0,1,3.58-1.34,14.3,14.3,0,0,1,3.81-.5,13.3,13.3,0,0,1,3.59.48c.55.17,1.07.35,1.56.55s.94.45,1.36.7.79.51,1.14.77.65.54.92.8a13.57,13.57,0,0,1,1.3,1.45,14.12,14.12,0,0,1,.89,1.44s-.64-.07-1.63-.25c-.51,0-1.09-.16-1.75-.22l-1-.09-1.09,0a19.12,19.12,0,0,0-2.29.12,17.24,17.24,0,0,0-2.35.46c-.39.09-.8.24-1.2.35s-.81.28-1.22.46c-.82.33-1.67.69-2.51,1.13s-1.72.89-2.6,1.35-1.75,1-2.63,1.43a50,50,0,0,1-5.15,2.5,16.21,16.21,0,0,1-4.22,1.16,5.87,5.87,0,0,1-1.27,0Z"/><path class="cls-4" d="M326.77,434.39l-1.94.28c-1.26.17-3.11.5-5.45.9s-5.16,1-8.36,1.67c-1.6.36-3.3.75-5.08,1.22s-3.64.92-5.57,1.48-3.91,1.18-5.95,1.87c-1,.36-2.07.69-3.07,1.06s-2,.77-3.1,1.22c-4.18,1.72-8.51,3.82-12.9,6.16s-8.83,5-13.26,7.75-8.83,5.8-13.12,9-8.52,6.42-12.59,9.74c-2,1.65-4,3.36-6,5s-3.87,3.37-5.73,5.06c-3.75,3.34-7.26,6.71-10.59,9.91l-4.8,4.73-4.44,4.49c-2.78,2.94-5.37,5.61-7.61,8l-5.82,6.29c-3.17,3.54-5.06,5.53-5.06,5.53l1-1.71c.65-1.1,1.57-2.75,2.82-4.78s2.79-4.51,4.7-7.24l3-4.37c1.09-1.52,2.28-3.08,3.51-4.74l3.94-5.06c1.39-1.73,2.88-3.47,4.39-5.28,3.1-3.55,6.43-7.27,10.08-10.91s7.51-7.34,11.62-10.89,8.42-7,12.88-10.27,9.08-6.32,13.77-9.1a149.46,149.46,0,0,1,14.15-7.51,117.29,117.29,0,0,1,14-5.5,91.8,91.8,0,0,1,13.17-3c1-.18,2-.32,3-.45s1.94-.28,2.88-.36c1.88-.2,3.66-.33,5.33-.44,3.34-.24,6.27-.24,8.66-.21s4.28.15,5.56.24S326.77,434.39,326.77,434.39Z"/><path class="cls-4" d="M109.64,482.21a39.45,39.45,0,0,1,4.25-5.58,79.53,79.53,0,0,1,13.94-12.3,98.55,98.55,0,0,1,10.64-6.54,116.84,116.84,0,0,1,12.7-5.8c2.25-.9,4.6-1.66,7-2.45s4.79-1.51,7.27-2.06l3.72-.92c1.24-.3,2.51-.52,3.77-.78s2.52-.51,3.79-.72l3.82-.59c5.1-.73,10.24-1.21,15.29-1.43,2.53-.19,5-.13,7.51-.17s4.92.05,7.32.15l3.57.14c1.18.08,2.34.18,3.49.29,2.3.23,4.55.35,6.73.66l6.34.82c2,.27,4,.7,5.88,1s3.69.63,5.39,1l4.82,1.13c1.51.36,2.92.67,4.22,1l3.55,1c2.14.6,3.81,1.14,4.95,1.47l1.74.55L259.5,452c-1.18-.12-2.93-.25-5.12-.5l-3.64-.38c-1.33-.09-2.76-.23-4.29-.36l-4.87-.42-5.4-.37c-3.75-.3-7.83-.4-12.12-.62-2.14-.13-4.35-.07-6.61-.11-1.13,0-2.26,0-3.41,0l-3.47.06c-4.67,0-9.48.27-14.35.59s-9.81.84-14.7,1.58l-3.67.53c-1.22.19-2.43.44-3.64.66s-2.42.43-3.62.68l-3.57.79-1.78.39-1.75.46-3.48.89c-1.15.31-2.28.67-3.4,1s-2.26.64-3.34,1L150,458.91c-1.08.36-2.12.78-3.17,1.16-2.11.73-4.1,1.61-6.08,2.41s-3.83,1.71-5.62,2.61c-.9.44-1.79.86-2.65,1.3L130,467.72c-3.24,1.83-6.2,3.55-8.72,5.27s-4.68,3.26-6.39,4.64-3,2.5-3.9,3.31S109.64,482.21,109.64,482.21Z"/><path class="cls-3" d="M317.79,38.36s7.53,31-19.78,44.2c-27.6,13.38-51.3,13.5-66.23,46.18,0,0,4.94-35.14,17.55-45.71,0,0-114.08,24.77-82.93,161.63,0,0-1.17,49.8,32.28,71.7s84.17,21.71,128.87-6.28c57.05-35.73,78.9-124.42,49-179.25,0,0-11.93,17-32.63,21.77,0,0,25.23-56.52-26.1-114.25"/><path class="cls-3" d="M165.8,253.56s-.5-54.81,45.21-61.17c25.9-3.6,33.38,5.11,33.38,5.11s-24.76-13.34-21.54-44.74c2.5-24.39,11.56-31.38,11.56-31.38S240.68,99.46,249.95,83c0,0-46.89,4.06-77.39,60.3C144.78,194.55,165.8,253.56,165.8,253.56Z"/><path class="cls-3" d="M317.41,37.36s63.39,43.1,27.1,115.25c-6,11.95-36.74,28-36.74,28S293.16,203.16,255,199.1c-38.9-4.15-42.57-64.79-8.6-93.07,33.6-28,62.7-23,71-67.67"/><path class="cls-3" d="M377.14,129.83c-12.82,16.12-33.63,22.77-33.63,22.77.23-43.85-12.35-54.92-12.35-54.92.24,81.27-41.23,97.49-53,100.45,8.5-1.36,33.86-1.87,51.5,20.79,9.16,11.77,6.29,24.24,6.45,38.19,6.23-2.93,15.67-9.3,15.67-9.3a85.71,85.71,0,0,1-12.57,32.09q-.23,1.29-.47,2.54c6.53-2.44,18.12-14.38,18.12-14.38-1.34,17.15-26,37.39-28.11,39.66a5,5,0,0,1,2,2s46.35-31.37,57.24-94.4C397.83,158.46,377.14,129.83,377.14,129.83Z"/><path class="cls-3" d="M278.16,198.13c-2,.31-3.08.62-3.08.62A26.11,26.11,0,0,0,278.16,198.13Z"/><path class="cls-4" d="M328.77,307.72a28.35,28.35,0,0,0,2.33-1.82q1.11-1,2.15-2a54.57,54.57,0,0,0,3.93-4.31q.93-1.12,1.79-2.29c.59-.76,1.15-1.55,1.71-2.34s1.08-1.6,1.6-2.41,1-1.63,1.49-2.47.94-1.68,1.4-2.52.9-1.7,1.34-2.55c.85-1.72,1.67-3.46,2.39-5.23.38-.88.72-1.78,1.07-2.67s.66-1.8,1-2.69l.94-2.72.86-2.74,4.54,3.51-1.07.75-1.05.71-2.12,1.37c-1.42.89-2.87,1.77-4.34,2.59s-3,1.61-4.51,2.36c-.77.37-1.54.74-2.33,1.09s-1.6.67-2.4,1L332,285.46l2.78-7.88,1.49-4.23,1.47-4.26q1.48-4.26,2.89-8.54c.95-2.85,1.9-5.7,2.81-8.56l2.69-8.58,6.4,4.17-2,1.66-2,1.62c-1.34,1.07-2.68,2.13-4.05,3.16a96.57,96.57,0,0,1-8.69,5.94l-8.09,4.79,2.38-9.08c.17-.63.35-1.47.5-2.24s.31-1.57.43-2.37c.26-1.59.47-3.19.62-4.8a61.23,61.23,0,0,0,.17-9.62,41.65,41.65,0,0,0-1.61-9.3,32.37,32.37,0,0,0-1.64-4.35,28.27,28.27,0,0,0-2.32-4q-.66-.94-1.4-1.83l-.77-.87-.19-.22a2.66,2.66,0,0,0-.19-.2l-.45-.45c-.61-.62-1.2-1.17-1.78-1.72s-1.22-1.1-1.84-1.65c-1.25-1.08-2.56-2.09-3.87-3.11s-2.69-2-4.09-2.86-2.84-1.75-4.32-2.54-3-1.58-4.5-2.28a58.22,58.22,0,0,0-9.56-3.46,37.06,37.06,0,0,1,5.12.61,50.59,50.59,0,0,1,5,1.19q2.5.71,5,1.62t4.8,2.07q2.36,1.14,4.65,2.45c1.52.88,3,1.84,4.44,2.85.72.51,1.43,1,2.14,1.57s1.43,1.1,2.07,1.64l.5.41c.1.08.14.1.28.23l.26.23,1,.94c.67.65,1.32,1.33,1.93,2a31.72,31.72,0,0,1,3.23,4.59,34.46,34.46,0,0,1,2.38,5,40.72,40.72,0,0,1,1.61,5.28,44.89,44.89,0,0,1,1,5.39c.23,1.8.34,3.61.41,5.41s0,3.6-.07,5.4-.26,3.58-.49,5.36c-.11.89-.24,1.78-.4,2.68s-.32,1.74-.56,2.76l-5.71-4.29a89.74,89.74,0,0,0,7.84-5.56q1.94-1.5,3.87-3.06l1.91-1.57,1.87-1.58,10.22-8.61-3.82,12.78c-.87,2.93-1.77,5.85-2.73,8.74s-1.91,5.79-2.93,8.66-2.06,5.73-3.12,8.58L343.34,276l-1.69,4.27L337,275.45a79.34,79.34,0,0,0,8.63-3.59c1.42-.69,2.85-1.39,4.25-2.14l2.09-1.14,2-1.16,7.77-4.45-3.23,8-1.14,2.81-1.22,2.78c-.84,1.84-1.76,3.65-2.73,5.42s-2,3.52-3.08,5.23-2.22,3.38-3.47,5a62.77,62.77,0,0,1-8.17,8.9c-.75.67-1.52,1.31-2.31,1.94s-1.58,1.23-2.41,1.79A30.23,30.23,0,0,1,328.77,307.72Z"/><path class="cls-3" d="M255.51,105.09s-20.63,8.77-53.82,58c-9.12,13.54-34.32,24.23-34.32,24.23s38.65,32,96,22.23c47.77-8.14,54.39-41.22,54.39-41.22Z"/><path class="cls-4" d="M240.07,109.73c-2.17,3.88-4.54,7.64-7,11.37s-4.93,7.39-7.46,11c-1.26,1.83-2.56,3.63-3.86,5.43l-3.94,5.37c-1.33,1.78-2.64,3.57-4,5.33l-4.09,5.25-2.06,2.62-1.06,1.33-1.05,1.28c-1.37,1.71-2.88,3.43-4.37,5.15s-3,3.33-4.59,4.93-3.14,3.21-4.72,4.8-3.21,3.13-4.85,4.66-3.28,3.05-5,4.54-3.38,2.94-5.1,4.39-3.44,2.85-5.27,4.28l.05-6.24c.67.51,1.51,1.1,2.3,1.64s1.62,1.1,2.44,1.63c1.65,1.07,3.34,2.09,5,3.09q5.14,3,10.53,5.47c3.59,1.66,7.24,3.19,11,4.54s7.49,2.54,11.31,3.51,7.68,1.78,11.57,2.38a116.32,116.32,0,0,0,11.74,1.11,107.68,107.68,0,0,0,11.77-.24c2-.16,3.9-.39,5.85-.63,1-.13,2-.29,2.94-.44s1.95-.32,2.91-.51A96.63,96.63,0,0,0,272.64,204a85.9,85.9,0,0,0,11-4.21A75.85,75.85,0,0,0,293.9,194a74.05,74.05,0,0,0,9.29-7.27,72.69,72.69,0,0,0,8-8.78,71.18,71.18,0,0,0,6.58-10c.5-.87,1-1.75,1.41-2.66l1.36-2.7c.8-1.85,1.69-3.67,2.38-5.57,1.53-3.76,2.71-7.65,3.87-11.57a93.86,93.86,0,0,1-2.43,12c-.49,2-1.19,3.94-1.81,5.91s-1.4,3.9-2.29,5.77a74.47,74.47,0,0,1-5.93,11,71.5,71.5,0,0,1-7.78,9.9,74.61,74.61,0,0,1-9.42,8.45,81.68,81.68,0,0,1-10.72,6.75,92.07,92.07,0,0,1-11.59,5.11,103.59,103.59,0,0,1-12.16,3.48c-1,.24-2.06.44-3.09.64s-2.11.39-3.1.54l-.75.12-.81.11-1.57.2c-1.05.12-2.1.3-3.15.37a109.24,109.24,0,0,1-12.67.47,114.5,114.5,0,0,1-25-3.5c-4.09-1-8.1-2.28-12.06-3.69s-7.84-3-11.64-4.79-7.52-3.73-11.15-5.84c-1.81-1.06-3.6-2.16-5.37-3.31-.88-.58-1.76-1.17-2.64-1.77s-1.7-1.21-2.66-1.95l-4.06-3.14,4.11-3.1c1.67-1.26,3.41-2.64,5.1-4s3.37-2.76,5-4.18,3.33-2.82,5-4.25,3.26-2.9,4.87-4.37,3.19-3,4.74-4.5,3.08-3.08,4.62-4.61,3-3.06,4.49-4.72l2.21-2.42,2.21-2.46,8.81-9.88,8.75-9.95,4.35-5,4.33-5,4.31-5.05C237.23,113.13,238.65,111.43,240.07,109.73Z"/><path class="cls-4" d="M251.69,256.63s0-.24,0-.68a18.08,18.08,0,0,1,.17-1.92,29.89,29.89,0,0,1,1.71-6.7,35.08,35.08,0,0,1,2-4.24,33.89,33.89,0,0,1,2.84-4.42,35.68,35.68,0,0,1,3.75-4.24,37.23,37.23,0,0,1,4.55-3.7,36.25,36.25,0,0,1,5.09-2.92,37.13,37.13,0,0,1,5.28-2,38.34,38.34,0,0,1,5.12-1.1c.82-.14,1.62-.2,2.39-.26s1.52-.14,2.24-.12a34.78,34.78,0,0,1,3.89.14,27.7,27.7,0,0,1,3,.39c.82.14,1.45.3,1.88.38l.66.16-.66.19c-.43.1-1.05.29-1.84.46s-1.74.46-2.81.73-2.27.63-3.57,1c-.65.16-1.31.41-2,.62s-1.39.42-2.1.7c-1.43.49-2.89,1.09-4.39,1.71l-2.23,1c-.73.4-1.49.74-2.22,1.15a48.13,48.13,0,0,0-4.32,2.67,50,50,0,0,0-4,3.06c-1.25,1.11-2.5,2.21-3.61,3.38s-2.19,2.32-3.15,3.48-1.83,2.3-2.63,3.37c-1.57,2.16-2.81,4.08-3.64,5.46L252,256Z"/><path class="cls-4" d="M233.7,256.79s0,0,0,.19c-.14,0-.09-.06-.13-.08l-.06-.09-.14-.24c-.2-.36-.53-.88-.89-1.54-.77-1.31-1.85-3.15-3.24-5.23a63,63,0,0,0-5.07-6.64c-1-1.13-2.07-2.24-3.19-3.32a48.25,48.25,0,0,0-7.44-5.76c-1.33-.82-2.67-1.58-4-2.26a68.91,68.91,0,0,0-7.7-3.3c-2.36-.85-4.4-1.5-5.85-2s-2.3-.74-2.3-.74l.62-.14c.41-.08,1-.21,1.78-.31a32.09,32.09,0,0,1,6.44-.25,33.9,33.9,0,0,1,9.08,1.8,32.34,32.34,0,0,1,4.86,2.13,32.62,32.62,0,0,1,8.68,6.73,32.12,32.12,0,0,1,3.27,4.18,32.85,32.85,0,0,1,4,8.38,29,29,0,0,1,1.24,6.35c.08.77.07,1.39.09,1.8,0,.19.05.39,0,.43Z"/><path class="cls-4" d="M81.84,433.24s46.79-33,75.29,9.82c0,0-42-30.5-76.8.76Z"/><path class="cls-4" d="M316.29,411.29s87.5-12.06,87.5,50.5c0,0-16.32-55.57-91.63-41.22Z"/><path class="cls-4" d="M290.4,289.47s10.57-2.44,14.72-.32c0,0,3.34,3.82,1.05,13.44,0,0-3-7.38-5-9.21S290.4,289.47,290.4,289.47Z"/><path class="cls-4" d="M100.79,420.18s17.33-8.89,30.33-7.62c9.66.95,14,12.59,14,12.59a55.13,55.13,0,0,0-16-6.33C115.46,416.23,100.79,420.18,100.79,420.18Z"/><path class="cls-4" d="M366.79,402.06s26.67,3.42,35,10.38,6.08,20.64,6.08,20.64-2.09-6.92-10.77-15.51C387.65,408.21,366.79,402.06,366.79,402.06Z"/><path class="cls-4" d="M183,301.59s20.33,30,70.06,30.38c0,0-40.39,9.09-76.94-19.58Z"/><path class="cls-4" d="M306.52,321.06s25.53-7.74,48.17-33.16l3.61,8.31S341.68,318.08,306.52,321.06Z"/><path class="cls-4" d="M274.65,273.44c4-.24,11.53-2,23.06-3.81,0,0-4.64-3.46-12.9-1.85S274.65,273.44,274.65,273.44Z"/><path class="cls-4" d="M194.84,268.84c4.14.88,10.43,1.55,22.28,4.47,0,0-.59-3.94-10.06-6.13C199,265.32,194.84,268.84,194.84,268.84Z"/><path class="cls-4" d="M191.56,196.49l-.54.62-1.5,1.75c-1.27,1.52-3,3.7-5,6.36-1,1.33-2,2.78-3.08,4.35s-2.11,3.23-3.18,5-2.08,3.57-3,5.46-1.88,3.83-2.73,5.8-1.59,4-2.25,6-1.26,4-1.73,6q-.39,1.47-.67,2.91c-.2,1-.41,1.89-.55,2.82-.35,1.84-.56,3.6-.78,5.24-.11.82-.15,1.61-.23,2.36s-.16,1.47-.19,2.15c-.06,1.35-.22,2.56-.23,3.54s-.08,1.77-.11,2.31l-.06.83-.28-.77c-.17-.51-.45-1.25-.74-2.22s-.58-2.15-.9-3.53-.51-3-.74-4.69l-.2-2.72c-.07-.94,0-1.92,0-2.92s.07-2,.14-3.09.2-2.13.35-3.22.34-2.2.58-3.31.5-2.23.81-3.35a57.19,57.19,0,0,1,2.3-6.64,59.2,59.2,0,0,1,3.16-6.26c.29-.5.57-1,.88-1.48l.94-1.43c.6-1,1.28-1.84,1.92-2.73a58.14,58.14,0,0,1,4.07-4.81,54.18,54.18,0,0,1,4.06-3.89,46.05,46.05,0,0,1,6.78-4.9A22.82,22.82,0,0,1,191.56,196.49Z"/><path class="cls-4" d="M230.6,261.73l-1.46-1.85c-.94-1.15-2.28-2.77-4-4.56a47.34,47.34,0,0,0-6.08-5.51,30.54,30.54,0,0,0-3.75-2.41,24.32,24.32,0,0,0-4.13-1.75,10,10,0,0,0-1.07-.31c-.36-.1-.72-.19-1.09-.25l-.55-.11-.14,0s-.09,0,0,0h-.08l-.31,0c-.4-.06-.85-.14-1.21-.17a33.7,33.7,0,0,0-4.46-.3,30,30,0,0,0-4.2.31,27.15,27.15,0,0,0-3.73.83,25.23,25.23,0,0,0-5.41,2.34,17.35,17.35,0,0,0-1.94,1.3,5.33,5.33,0,0,1,.29-.55,12.08,12.08,0,0,1,1-1.46,17.82,17.82,0,0,1,4.89-4.18,22.79,22.79,0,0,1,8.79-2.92,27.67,27.67,0,0,1,5.28-.14c.47,0,.85.08,1.27.11l.31,0,.21,0,.17,0,.7.11a13.3,13.3,0,0,1,1.38.28,14.07,14.07,0,0,1,1.36.37,22.34,22.34,0,0,1,5.08,2.28,25.34,25.34,0,0,1,4.21,3.21,29.62,29.62,0,0,1,5.58,7.21A30.56,30.56,0,0,1,230,259.4,16.26,16.26,0,0,1,230.6,261.73Z"/><path class="cls-4" d="M304.12,249s-.17-.15-.51-.4a16.33,16.33,0,0,0-1.51-1,22,22,0,0,0-2.47-1.14l-.75-.29-.82-.24c-.55-.18-1.14-.32-1.75-.47a34.6,34.6,0,0,0-4-.67l-2.21-.17-2.32,0-2.4.07c-.81,0-1.64.14-2.46.18l-.62,0h-.17l-.33.05-1.31.2c-.43.07-.9.11-1.29.21l-1.09.31L277,246l-1.13.42-1.13.41c-.38.13-.73.33-1.1.49a35.82,35.82,0,0,0-4.21,2.23c-1.34.81-2.59,1.69-3.77,2.56l-1.7,1.31-1.56,1.29c-1,.86-1.89,1.64-2.68,2.38s-1.47,1.38-2,1.93c-1.11,1.1-1.75,1.75-1.75,1.75s.06-.22.21-.62.37-1,.72-1.71a27.68,27.68,0,0,1,1.34-2.55c.29-.47.59-1,.92-1.52l1.12-1.63,1.33-1.7c.48-.58,1-1.14,1.54-1.73a34.11,34.11,0,0,1,3.75-3.4,23.2,23.2,0,0,1,2.21-1.56,19.58,19.58,0,0,1,2.42-1.4,17.81,17.81,0,0,1,2.61-1.17c.45-.17.9-.35,1.36-.52l1.48-.4,1.49-.36c.48-.1.89-.13,1.34-.19l1.31-.16.33,0,.31,0h.17l.69,0a39.54,39.54,0,0,1,5.4.17c.88.13,1.74.23,2.57.38s1.65.36,2.43.57,1.54.46,2.25.75,1.4.55,2,.89a18.27,18.27,0,0,1,3.27,2.06,14.25,14.25,0,0,1,2.15,2A8.27,8.27,0,0,1,304.12,249Z"/><path class="cls-4" d="M228.6,311.33s44.87,9.25,72.68-21.75l2.54,3.79S276.85,327.33,228.6,311.33Z"/><circle class="cls-4" cx="280.32" cy="256.72" r="14.45"/><circle class="cls-4" cx="208.81" cy="256.55" r="14.45"/><circle class="cls-3" cx="201.97" cy="260.1" r="3.81"/><circle class="cls-3" cx="274.65" cy="261.26" r="3.91"/><text class="cls-5" transform="translate(397 507.52)">TM</text><path class="cls-4" d="M281.49,354.78c.76,3.21,1.49,6.32,2.22,9.44.57,2.45,1.12,4.9,1.7,7.35a2,2,0,0,0,.55,1.09c4.34,3.37,6.43,8,7.57,13.21a66.61,66.61,0,0,1,1,17.8,47.17,47.17,0,0,1-2.17,12.54c-3.1,9.32-9.69,14.14-19.49,14.14-4.53,0-9.06-.15-13.59-.23H258l2.21,9.2H234.65l2.18-9c-1.48.13-2.85.32-4.23.37-4.4.15-8.83.61-13.2.3-6.82-.48-12-4.16-16-9.54a1.23,1.23,0,0,1,0-1,13.16,13.16,0,0,0,.88-5.45q0-18.71,0-37.43a9.27,9.27,0,0,1,3.38-7.57,8.7,8.7,0,0,1,2.52-.89l3.34-14.26c1.13.41,2.19.85,3.28,1.17a10,10,0,0,0,2.7.5q28.07,0,56.14,0a9.42,9.42,0,0,0,2.59-.48C279.25,355.66,280.31,355.21,281.49,354.78ZM255.9,373.38c.39.66.54,1.29.9,1.46,1.58.73,1.87,1.06,1.87,2.79q0,5.11,0,10.22,0,16.9,0,33.81c0,1.51-.4,2.19-1.64,2.59-.55.18-1,.39-.76,1a1.33,1.33,0,0,0,1,.59c5.69.12,11.38.36,17.06.24,4.49-.09,8.47-1.78,11.08-5.59a22.73,22.73,0,0,0,3.15-6.52c2.44-8.63,2.45-17.41,1.06-26.22a20.16,20.16,0,0,0-3.66-9.18c-3.14-4.16-7.59-5.55-12.54-5.66-3.32-.08-6.65.06-10,.15C261.07,373.13,258.68,373.26,255.9,373.38Zm-41.7-3.3c.66-.07,1.43.06,1.62-.22,1.11-1.62,2.69-1.92,4.48-1.92,7.13,0,14.26,0,21.38,0H243v1.39q0,30.45,0,60.9a6.52,6.52,0,0,1,0,.93,3,3,0,0,1-2.11,2.76c-.38.11-.65.6-1,.92l.22.23H254.9c-.26-.46-.39-1-.63-1.06-2.13-.48-2.38-2-2.38-3.82q0-30.39,0-60.78V368h23.58a3.45,3.45,0,0,1,3.15,1.41c.58.92,1.17,1,2,.4l-2.13-9.12H216.39Zm5.8,3.44h-8.16c-2.4,0-3.15.67-3.44,3.1a13.7,13.7,0,0,0-.06,1.62q0,18.89,0,37.78c0,1.19-.26,2.38-.33,3.57a1.85,1.85,0,0,0,.32,1.23,18.05,18.05,0,0,0,9,5.6,26.56,26.56,0,0,0,8.88.49l12.52-1v-1.3c-2.17-.73-2.44-1.11-2.44-3.42q0-21.56,0-43.12c0-2.25.32-2.69,2.42-3.31v-1.27h-8.56c-2.57,0-3,.39-3.18,3,0,.54-.05,1.08-.05,1.63q0,7.26,0,14.53,0,11,0,22.08c0,2.42-1.11,4.09-3.2,4.52-3.46.71-6.28-.61-6.25-4.78.07-12,0-24.1,0-36.15,0-2.36.31-2.81,2.5-3.72Z"/><path class="cls-6" d="M255,373.25c2.78-.12,5.17-.26,7.56-.32,3.33-.09,6.66-.22,10-.15,4.95.11,9.4,1.5,12.54,5.66a20.16,20.16,0,0,1,3.66,9.18c1.39,8.8,1.38,17.59-1.06,26.22a22.73,22.73,0,0,1-3.15,6.52c-2.62,3.81-6.6,5.5-11.08,5.59-5.68.12-11.37-.12-17.06-.24a1.33,1.33,0,0,1-1-.59c-.26-.6.22-.81.76-1,1.24-.41,1.64-1.08,1.64-2.59q0-16.9,0-33.81,0-5.11,0-10.22c0-1.74-.29-2.06-1.87-2.79C255.56,374.55,255.41,373.91,255,373.25Zm12.15,45.28c1.83,0,3.53,0,5.22,0a5,5,0,0,0,5-3,20.47,20.47,0,0,0,1.65-5,68.86,68.86,0,0,0,.41-20.91,29.22,29.22,0,0,0-2-6.6,3.68,3.68,0,0,0-3.06-2.42c-2.4-.17-4.83,0-7.27,0Z"/><path class="cls-4" d="M267.17,418.53v-38c2.44,0,4.86-.13,7.27,0A3.68,3.68,0,0,1,277.5,383a29.22,29.22,0,0,1,2,6.6,68.86,68.86,0,0,1-.41,20.91,20.47,20.47,0,0,1-1.65,5,5,5,0,0,1-5,3C270.7,418.49,269,418.53,267.17,418.53Z"/></svg>